<svg xmlns="http://www.w3.org/2000/svg" viewBox="0 0 70.37 50"><defs><style>.cls-1{fill:#8363af;}</style></defs><g id="Layer_3" data-name="Layer 3"><path class="cls-1" d="M32.89,35.31A6.7,6.7,0,0,0,27.32,30h0a20.59,20.59,0,0,0-5.52.16c-2.31.32-8.94-.47-10.63-2S9.3,25.64,5.91,26.49s-4.75,1.58-5,3.32,2.76,5.6,4.41,4.92c1.09-.46,2.14.63,2.87.81s4.58,2.61,8.51,3a6.79,6.79,0,0,0,.15,2c.73,3.14,3.54,5.17,6.27,4.53a4.56,4.56,0,0,0,2.38-1.44A6,6,0,0,1,24,43a6.37,6.37,0,0,1-2.88-4,6.81,6.81,0,0,1-.16-1.34,6.23,6.23,0,0,1,.15-1.49l0-.13c0-.19.1-.38.16-.56l0-.09A7.54,7.54,0,0,0,21.44,38c.85,3.64,4.1,6,7.26,5.25S33.74,39,32.89,35.31Z"/><path class="cls-1" d="M69.16,4.38c-.89-3.16-9.87-.61-16.12-1C47.45,3,39.27.25,32.93,1.2,21.8,2.85,15.43,8,15.06,12.92c-.62,8.44,5.85,11.22,9.51,16h0a14.3,14.3,0,0,1,4.22.4c2.33.59,4.36,3,5,5.8a8.16,8.16,0,0,1-.69,5.71,6.79,6.79,0,0,1-1.51,1.94,24.61,24.61,0,0,0,2.57,3.83c2.55,2.13,7.54,4.89,12.86-1.7S72.24,15.33,69.16,4.38ZM34.09,23.3C30,22.17,20.47,17.4,21.73,13.74c1.58-4.63,9.36-7.93,12.38-8.31,6-.76,11.9,1.72,16.66,2,3.23.21,4.9.64,5.75,1.16C58,11,42,25.49,34.09,23.3ZM41,44c0-5.42,13.77-25.61,21-31.24C63.21,17.52,48.92,42.39,41,44Z"/></g></svg>