<svg xmlns="http://www.w3.org/2000/svg" viewBox="0 0 28.02 50"><defs><style>.cls-1{fill:#8363af;}</style></defs><g id="Layer_3" data-name="Layer 3"><path class="cls-1" d="M20.41,24a14,14,0,0,0,1.31-.88c.35-.29.17-1.51,0-2.39A23.84,23.84,0,0,1,14,21.91a23.94,23.94,0,0,1-7.72-1.25c-.19.88-.38,2.12,0,2.41A14,14,0,0,0,7.61,24a23.69,23.69,0,0,0,6.4.86A23.74,23.74,0,0,0,20.41,24Z"/><path class="cls-1" d="M5.54,17.9a2,2,0,0,0,.85,1.79A23.37,23.37,0,0,0,14,21a23.14,23.14,0,0,0,7.51-1.21,2,2,0,0,0,.93-1.84,2.34,2.34,0,0,0-2.37-2.4,24.79,24.79,0,0,1-6.1.76A24.94,24.94,0,0,1,7.9,15.5,2.33,2.33,0,0,0,5.54,17.9Z"/><path class="cls-1" d="M21.72,29.16c-1.64-.7-2.34-2.88-2.42-4a24.83,24.83,0,0,1-10.58,0c-.08,1.08-.78,3.26-2.42,4-2.13.91-3.76,1.47-4.62,5.23s1,10.85,4.21,12.78S14,49,14,49s4.92.1,8.12-1.83,5.07-9,4.21-12.78S23.85,30.07,21.72,29.16Z"/><path class="cls-1" d="M14,15.3a23.53,23.53,0,0,0,5.81-.71C18.89,11.72,16.5,4.28,15,1.48A1,1,0,0,0,14,1a1,1,0,0,0-1,.48C11.52,4.28,9.13,11.72,8.2,14.59A23.47,23.47,0,0,0,14,15.3Z"/></g></svg>