<svg xmlns="http://www.w3.org/2000/svg" viewBox="0 0 47.24 50"><defs><style>.cls-1{fill:#8363af;}</style></defs><g id="Layer_3" data-name="Layer 3"><circle class="cls-1" cx="23.62" cy="25" r="14.37"/><path class="cls-1" d="M45.46,3.14A4.92,4.92,0,0,0,43.57,1l-3,3.62L37.56,1,35.24,3.8,32.91,1,30.59,3.8,28.27,1,25.94,3.8,23.62,1,21.3,3.8,19,1,16.65,3.8,14.33,1,12,3.8,9.68,1l-3,3.62L3.67,1A4.92,4.92,0,0,0,1.78,3.14a15.72,15.72,0,0,0-.49,4V42.84a15.72,15.72,0,0,0,.49,4A4.92,4.92,0,0,0,3.67,49l3-3.62,3,3.62L12,46.2,14.33,49l2.32-2.8L19,49l2.33-2.8L23.62,49l2.32-2.8L28.27,49l2.32-2.8L32.91,49l2.33-2.8L37.56,49l3-3.62,3,3.62a4.92,4.92,0,0,0,1.89-2.14,15.72,15.72,0,0,0,.49-4V7.16A15.72,15.72,0,0,0,45.46,3.14ZM23.62,40.33A15.33,15.33,0,1,1,39,25,15.35,15.35,0,0,1,23.62,40.33Z"/></g></svg>