<svg xmlns="http://www.w3.org/2000/svg" viewBox="0 0 39.75 50"><defs><style>.cls-1{fill:#8363af;}</style></defs><g id="Layer_3" data-name="Layer 3"><path class="cls-1" d="M13.17,10.56H8.38a7.08,7.08,0,0,0-7.07,7.07v30A1.42,1.42,0,0,0,2.73,49H18.82a1.41,1.41,0,0,0,1.41-1.41v-30A7.07,7.07,0,0,0,13.17,10.56Zm-2.4,11.07A1.61,1.61,0,1,1,12.38,20,1.61,1.61,0,0,1,10.77,21.63Zm7.64,2.2H15.63V18.24a2.47,2.47,0,0,0-2.47-2.47H8.38a2.47,2.47,0,0,0-2.46,2.47v5.59H3.13v-6.2a5.26,5.26,0,0,1,5.25-5.25h4.79a5.25,5.25,0,0,1,5.24,5.25Z"/><path class="cls-1" d="M21.19,43.28h2.69a2.81,2.81,0,0,1,2.49-2.18,2.81,2.81,0,0,1,2.48,2.18h6.32V37.76l.15-1.35H21.19Z"/><path class="cls-1" d="M37.07,1H15.29a1.36,1.36,0,0,0-1.36,1.37v5.2l.23,2.1a8,8,0,0,1,7,8v16.9H35.52l2.91-27V2.37A1.36,1.36,0,0,0,37.07,1Z"/><path class="cls-1" d="M27.18,44c-.3-.8-.49-1.06-.81-1.08s-.52.28-.81,1.08c-.16.44-.4,1.1-1.14,1.1H21.19v2.49A2.39,2.39,0,0,1,20.72,49H32.41a2.77,2.77,0,0,0,2.76-2.76V45.1H28.31C27.58,45.1,27.34,44.44,27.18,44Z"/></g></svg>