<?xml version="1.0" encoding="utf-8"?>
<!-- Generator: Adobe Illustrator 24.1.2, SVG Export Plug-In . SVG Version: 6.00 Build 0)  -->
<svg version="1.1" xmlns="http://www.w3.org/2000/svg" xmlns:xlink="http://www.w3.org/1999/xlink" x="0px" y="0px"
	 viewBox="0 0 32 32" style="enable-background:new 0 0 32 32;" xml:space="preserve">
<style type="text/css">
	.st0{fill:#FFFFFF;}
</style>
<g id="Layer_2">
</g>
<g id="Capa_1">
	<g>
		<path class="st0" d="M29.8,5.9c-7.4,0-14.4,0-21.8,0c-0.4,0-0.6-0.1-0.7-0.5C6.9,3.9,6.9,4.1,6.5,2.6C6.3,2.1,6,1.8,5.5,1.8
			c-1.3,0-2.3,0-3.6,0C1.4,1.8,1,2.3,1,2.8c0,0.5,0.5,0.9,1.1,0.9c0.9,0,1,0,1.9,0c0.5,0,0.6,0.2,0.8,0.6c1.2,3.9,4.5,13.4,5.1,15.6
			c0.3,1.2,0.6,1.4,1.9,1.4c6,0,13.5,0,13.5,0c0.8,0,1-0.2,1.2-0.9c1.1-3.5,3.2-9.5,4.3-12.9C31.2,6.4,30.9,5.9,29.8,5.9z M28.4,8.5
			c-0.8,2.5-2.7,8-3.6,10.8c-4.3,0-8.7,0-13,0C10.9,16.4,9,10.9,8.2,8.4c0-0.1-0.1-0.3-0.1-0.5c6.8,0,13.6,0,20.4,0
			C28.5,8.1,28.4,8.3,28.4,8.5z"/>
		<path class="st0" d="M15.7,26.7c0,2-1.6,3.6-3.5,3.5c-2,0-3.5-1.6-3.5-3.6c0-1.9,1.6-3.5,3.5-3.5C14.1,23.1,15.7,24.7,15.7,26.7z
			 M13.9,26.7c0-1-0.8-1.8-1.7-1.8c-1,0-1.7,0.8-1.8,1.8c0,1,0.8,1.8,1.8,1.8C13.1,28.4,13.9,27.7,13.9,26.7z"/>
		<path class="st0" d="M21.2,26.7c0-2,1.6-3.6,3.6-3.5c1.9,0,3.5,1.6,3.5,3.6c0,1.9-1.6,3.6-3.5,3.6C22.8,30.3,21.2,28.6,21.2,26.7z
			 M26.5,26.7c0-0.9-0.8-1.8-1.8-1.7c-0.9,0-1.7,0.8-1.7,1.7c0,0.9,0.8,1.8,1.8,1.8C25.7,28.5,26.5,27.6,26.5,26.7z"/>
	</g>
</g>
</svg>
