<svg xmlns="http://www.w3.org/2000/svg" viewBox="0 0 32.58 50"><defs><style>.cls-1{fill:#8363af;}</style></defs><g id="Layer_3" data-name="Layer 3"><path class="cls-1" d="M27.83,2c-1-1.17-2.92-1.59-2.94,0s-.75,3.44-2.07,3.44-3.41-.85-6.53-.85-5.32.85-6.53.85S7.72,3.63,7.69,2,5.79.87,4.75,2A19.74,19.74,0,0,0,1,13.88C1,20,2.16,27.78,4,31.7c1.77,3.75,4.66,9.15,12.28,9.15s10.51-5.4,12.28-9.15c1.85-3.92,3-11.68,3-17.82A19.74,19.74,0,0,0,27.83,2ZM25.37,4.77a12.72,12.72,0,0,0,.95-2.44.19.19,0,0,1,.31-.1A9.3,9.3,0,0,1,29,5.4a.22.22,0,0,1-.21.3,9.54,9.54,0,0,1-3.33-.52A.3.3,0,0,1,25.37,4.77ZM3.55,5.4A9.17,9.17,0,0,1,6,2.23a.18.18,0,0,1,.3.1,13.45,13.45,0,0,0,1,2.44.29.29,0,0,1-.13.41,9.45,9.45,0,0,1-3.32.52A.22.22,0,0,1,3.55,5.4ZM2.9,13.8c0-2.49,2.83-5.09,2.83-5.09L8,10.38c-1.84,3.52.5,7.82.5,7.82s1.65-3.94.53-7.08l4.29,3.1s-.79,3.9-3.1,4.64A5.9,5.9,0,0,1,5.2,18.3,5.6,5.6,0,0,1,2.9,13.8ZM22.61,36.34a14.4,14.4,0,0,1-3.84,2,3.49,3.49,0,0,0-2.48-.76,3.49,3.49,0,0,0-2.48.76,14.25,14.25,0,0,1-3.84-2A7.75,7.75,0,0,1,6.4,30a7.11,7.11,0,0,1,1.66-4.9s1.43.79,2.18,0,.34-1.89.47-2.15a6.78,6.78,0,0,1,2.84-1.22,3.84,3.84,0,0,0,2.74,1.44A3.87,3.87,0,0,0,19,21.77,6.78,6.78,0,0,1,21.87,23c.13.26-.27,1.35.47,2.15s2.17,0,2.17,0A7.09,7.09,0,0,1,26.18,30,7.75,7.75,0,0,1,22.61,36.34Zm4.77-18a5.9,5.9,0,0,1-5.06.56c-2.31-.74-3.1-4.64-3.1-4.64l4.29-3.1c-1.12,3.14.53,7.08.53,7.08s2.34-4.3.5-7.82l2.31-1.67s2.83,2.6,2.83,5.09A5.6,5.6,0,0,1,27.38,18.3Z"/><path class="cls-1" d="M17.93,43.74l0-1.11s.47-.48.91-1a15.23,15.23,0,0,1-2.51.22A13.78,13.78,0,0,1,14,41.62c.43.55.87,1,.87,1l0,1.11s-1.88.07-2.14.36c-.5.57-.21.66.92,2.41S15.3,49,16.38,49s1.64-.75,2.77-2.49,1.43-1.84.92-2.41C19.81,43.81,17.93,43.74,17.93,43.74Z"/></g></svg>