<svg xmlns="http://www.w3.org/2000/svg" viewBox="0 0 81.12 50"><defs><style>.cls-1{fill:#8363af;}</style></defs><g id="Layer_3" data-name="Layer 3"><path class="cls-1" d="M36.59,9.65l.6-.47c-2.69-2-15.9-8-18.07-8.18C17.93.88,2.82,14.2,1.18,17c5.09,2.31,16.15,6.8,18.73,7.76C22.42,20.71,31.58,13.55,36.59,9.65ZM25.77,7.89c1.38-.76,2.85-.38,3.22.93s-.37,2.7-1.9,3.7-3.24.35-3.49-.87A3.9,3.9,0,0,1,25.77,7.89ZM18.89,3.75c1.38-.76,2.85-.37,3.22.94s-.37,2.7-1.91,3.7-3.23.34-3.48-.87A3.92,3.92,0,0,1,18.89,3.75ZM12.83,15.58c-1.54,1-3.23.34-3.49-.88a3.91,3.91,0,0,1,2.18-3.76c1.38-.76,2.85-.38,3.21.94S14.37,14.58,12.83,15.58Zm3.05,3.09a3.91,3.91,0,0,1,2.17-3.76c1.39-.76,2.85-.37,3.22.94s-.36,2.7-1.9,3.7S16.14,19.89,15.88,18.67Z"/><path class="cls-1" d="M1.1,18c.85,3.54,8.61,16,9,16.76.3.57,3.93,3.16,8.64,5.8A60.64,60.64,0,0,0,25.55,44a1.51,1.51,0,0,0,.48.09C24.39,40,21,30.29,19.71,25.7,17.4,24.85,6.5,20.44,1.1,18ZM13.23,29.5c-.6.91-2.19.39-3.14-.4s-1.84-2.61-1.3-3.28,1.93-.54,2.8.08C13.39,27.21,13.77,28.67,13.23,29.5Zm6.65,6.94c-.6.91-2.19.39-3.14-.4s-1.84-2.61-1.3-3.28,1.93-.54,2.8.08C20,34.15,20.43,35.61,19.88,36.44Z"/><path class="cls-1" d="M59.67,27.13c-1-4-7.26-12.32-11-17.22C46,12.57,36.05,29.19,36.38,30.31c.61,2.1,8.83,14,11.32,16.28,1.79-2.52,6.63-10.59,9.67-15.65C58.28,29.42,59.08,28.09,59.67,27.13ZM43.59,31.28c-1.05,1.62-2.78,2.26-3.61,1.5s-.72-2.64.37-4.13,2.67-1.81,3.52-1.14C44.5,28,44.66,29.65,43.59,31.28Zm6,7.63c-1,1.61-2.78,2.26-3.62,1.49s-.71-2.63.38-4.13,2.67-1.8,3.51-1.13C50.55,35.64,50.71,37.27,49.64,38.91Zm.2-9.42c-1.05,1.62-2.78,2.26-3.61,1.5s-.72-2.64.37-4.13,2.67-1.81,3.51-1.14C50.75,26.23,50.91,27.86,49.84,29.49Zm.35-8.75c-1.06,1.61-2.78,2.26-3.62,1.49s-.72-2.63.38-4.13,2.66-1.8,3.51-1.13C51.1,17.47,51.26,19.1,50.19,20.74Zm6.39,7.6c-1,1.61-2.78,2.25-3.62,1.49s-.71-2.63.38-4.13,2.67-1.8,3.51-1.13C57.49,25.07,57.65,26.7,56.58,28.34Z"/><path class="cls-1" d="M58.19,31.43c-4.14,6.9-8,13.25-9.65,15.64,2.77.75,16.63,2.32,17.67,1.84.84-.38,4.9-4.71,8.58-9.73a38.23,38.23,0,0,0,5.06-8.92C75.6,29.54,62.57,28,60.43,27.72Zm4,4.81c1.09-1.55,3.46-2.25,4.61-1.61,1.94,1.07,1.38,2.94.34,4.14S64.2,41,62.47,40.1,61.5,37.21,62.18,36.24Z"/><path class="cls-1" d="M80,29.31a1.26,1.26,0,0,0-.18-.49,61.29,61.29,0,0,0-4.63-6c-3.44-4.15-6.65-7.25-7.27-7.45-.87-.27-15.14-5.89-18.36-5.83,3.94,5.18,9.82,13.06,11,17.27C62.82,27,75.73,28.58,80,29.31ZM69.26,22c.61-.61,2-.19,3.06.59,1.26,1,1.9,2.52,1.21,3.27-.52.56-1.65.77-3.11-.35S68.51,22.72,69.26,22Zm-6.62-4.15c.6-.6,2-.18,3,.6,1.27,1,1.9,2.51,1.21,3.26-.52.56-1.64.78-3.11-.35S61.88,18.57,62.64,17.81ZM57.27,18c-1.45-1.11-1.91-2.76-1.15-3.51.6-.61,2-.19,3.05.59,1.26,1,1.9,2.51,1.21,3.26C59.86,18.91,58.74,19.12,57.27,18Z"/><path class="cls-1" d="M36.06,28.34a2.62,2.62,0,0,1-.52-.93,3.22,3.22,0,0,1,.76-3.7,1.64,1.64,0,0,1,2.11.17c.6-1.05,1.31-2.26,2.17-3.69l.44-.74a98.11,98.11,0,0,0-3.21-9.53l-.63.49c-5,3.91-14.3,11.15-16.56,15,1.27,4.57,4.71,14.32,6.31,18.38a38.12,38.12,0,0,0,7.89-6.62c.92-1,1.8-2,2.62-2.92a20.53,20.53,0,0,1-2-3.66C35.39,30.36,35.3,30,36.06,28.34ZM34,15.07c1-.72,2.26-.15,2.81,1.17a3.56,3.56,0,0,1-.6,3.9c-.88.72-2.45.22-3-1.37A3.23,3.23,0,0,1,34,15.07Zm-4.67,3.81c1-.72,2.27-.16,2.82,1.16a3.54,3.54,0,0,1-.61,3.9c-.87.72-2.45.22-3-1.36S28.4,19.54,29.33,18.88Zm-3,9.47c-.87.71-2.45.22-3-1.37a3.25,3.25,0,0,1,.76-3.7c1-.72,2.27-.16,2.81,1.17A3.53,3.53,0,0,1,26.3,28.35Zm3.84,9.11c-.88.71-2.45.22-3-1.37a3.23,3.23,0,0,1,.76-3.7c1-.72,2.27-.16,2.81,1.17A3.55,3.55,0,0,1,30.14,37.46Zm4.12-4.25c-.87.72-2.45.22-3-1.36s-.17-3,.76-3.7,2.27-.16,2.82,1.16A3.54,3.54,0,0,1,34.26,33.21Z"/></g></svg>