<svg xmlns="http://www.w3.org/2000/svg" viewBox="0 0 48.87 50"><defs><style>.cls-1{fill:#8363af;}</style></defs><g id="Layer_3" data-name="Layer 3"><path class="cls-1" d="M29,28.09a9.6,9.6,0,0,0-9.6-9.6H10.79a9.6,9.6,0,0,0-9.6,9.6V44.2A4.8,4.8,0,0,0,6,49H24.22A4.79,4.79,0,0,0,29,44.2Z"/><path class="cls-1" d="M40.11,24.21a3.64,3.64,0,1,0,3.63-3.64A3.64,3.64,0,0,0,40.11,24.21Zm6.31,0a2.68,2.68,0,1,1-2.68-2.68A2.68,2.68,0,0,1,46.42,24.21Z"/><path class="cls-1" d="M39.53,18.78a4.91,4.91,0,1,0-4.9-4.9A4.91,4.91,0,0,0,39.53,18.78Zm0-8.85a3.95,3.95,0,1,1-3.94,4A4,4,0,0,1,39.53,9.93Z"/><path class="cls-1" d="M34.54,30a2.7,2.7,0,1,0-2.7-2.69A2.7,2.7,0,0,0,34.54,30Zm0-4.43a1.74,1.74,0,1,1-1.74,1.74A1.74,1.74,0,0,1,34.54,25.54Z"/><path class="cls-1" d="M4.64,10a2.75,2.75,0,0,0,2-.85c1-1.1,3.4-2.69,4.94-2.69h7.92a2.73,2.73,0,0,0,0-5.45H11.56C7.81,1,4.1,3.87,2.66,5.39a2.73,2.73,0,0,0,2,4.6Z"/><path class="cls-1" d="M10.26,13.51v4c.18,0,.35,0,.53,0h8.63l.54,0v-4a.85.85,0,0,0-.85-.85h-8A.85.85,0,0,0,10.26,13.51Z"/><rect class="cls-1" x="12.53" y="7.41" width="5.17" height="4.29"/><path class="cls-1" d="M42,32.42H31.82a5.64,5.64,0,0,0-1.84.31V44.2A5.72,5.72,0,0,1,28.57,48a5.61,5.61,0,0,0,3.25,1H42a5.7,5.7,0,0,0,5.7-5.7V38.11A5.7,5.7,0,0,0,42,32.42Z"/></g></svg>