<svg xmlns="http://www.w3.org/2000/svg" viewBox="0 0 57.34 50"><defs><style>.cls-1{fill:#8363af;}</style></defs><g id="Layer_3" data-name="Layer 3"><path class="cls-1" d="M11.89,15.07l.55.09a2.62,2.62,0,0,0,.55.05,3.13,3.13,0,0,0,3.08-2.57L16.71,9l2.82-1.29a3.06,3.06,0,0,0,1.16.64L24.57,9.5a2.91,2.91,0,0,0,.87.13,3.14,3.14,0,0,0,3-2.25l.16-.54A3.13,3.13,0,0,0,26.48,3L22.6,1.83a3.12,3.12,0,0,0-2.71.48,2.51,2.51,0,0,0-1.59.17L14.13,4.4a2.37,2.37,0,0,0-.72.52,3.08,3.08,0,0,0-3.34,2.55l-.71,4A3.14,3.14,0,0,0,11.89,15.07ZM22.06,3.67l3.88,1.14a1.21,1.21,0,0,1,.72.57,1.23,1.23,0,0,1,.1.92l-.16.54a1.2,1.2,0,0,1-1.49.82L21.4,6.58a2.53,2.53,0,0,0,.35-2.67l-.08-.19-.05-.08.11,0A1.26,1.26,0,0,1,22.06,3.67Zm-3.48.8v0a3.14,3.14,0,0,0,0,1.58L16.6,7a3.2,3.2,0,0,0-.34-.63,3,3,0,0,0-.51-.56ZM12,7.8a1.19,1.19,0,0,1,.71-.87,2.49,2.49,0,0,0,.22.84L13,8h0A2.54,2.54,0,0,0,14.7,9.35l-.52,3a1.2,1.2,0,0,1-1.4,1l-.55-.09a1.22,1.22,0,0,1-1-1.4Z"/><path class="cls-1" d="M49.85,5.29A15,15,0,0,0,36.12,3.63,5.93,5.93,0,0,0,34.55,2a6,6,0,0,0-6-.42s-.28.35-.69.93a4.05,4.05,0,0,1,1.7,4.56l-.16.54a4.1,4.1,0,0,1-3.92,2.94,4,4,0,0,1-1.14-.17L22.75,10a15.57,15.57,0,0,0-1,1.56,4.82,4.82,0,0,0,0,.76A6.94,6.94,0,0,1,24,16.56a.86.86,0,0,1,0,.16,3.65,3.65,0,0,0,.31.24,6.09,6.09,0,0,0,2,.88,15.17,15.17,0,0,0,.26,2.52,16,16,0,0,1,5,8.7,14.52,14.52,0,0,0,1.3,1A15,15,0,0,0,48,31.14l1.52-.71a6.41,6.41,0,0,1-5.13-5.66c-.27.1-.87.36-1,.38A7.76,7.76,0,1,1,49,18.94,5.4,5.4,0,0,0,46.27,21a5.48,5.48,0,1,0,9.51.86A15,15,0,0,0,49.85,5.29Z"/><path class="cls-1" d="M22.93,18.92a5.93,5.93,0,0,0,.14-2.23,6,6,0,0,0-3.72-4.78s-.91.07-2.22.23l-.12.67a4.08,4.08,0,0,1-4,3.36,4.37,4.37,0,0,1-.72-.06l-.55-.1a4.07,4.07,0,0,1-3.13-2.72,9.83,9.83,0,0,0-1.12.2,5.95,5.95,0,0,0-1.62,7.65,15,15,0,0,0,4.49,25l1.55.66a6.58,6.58,0,0,1-.84-2.42,6.45,6.45,0,0,1,1.64-5.18l-.92-.45a7.75,7.75,0,1,1,8.36,0,5.48,5.48,0,1,0,2.31,7,15,15,0,0,0,.49-26.82Z"/></g></svg>