<svg xmlns="http://www.w3.org/2000/svg" viewBox="0 0 61.57 50"><defs><style>.cls-1{fill:#8363af;}</style></defs><g id="Layer_3" data-name="Layer 3"><path class="cls-1" d="M38.81,33.94a20,20,0,0,1,4.89-7.2,3.32,3.32,0,0,1-3-3.62c.38-3-.34-9.68-10.69-16.26C19.84.4,4.06-.25,1.6,2.65-.27,6,5.79,20.54,15.36,27.84c9.76,7.44,16.23,5.82,19,4.41A3.34,3.34,0,0,1,38.81,33.94Z"/><path class="cls-1" d="M57.47,24.27c-3.76-1.92-7.7-.55-10.09.84-.56.35-1.1.72-1.61,1.11h0c-3.86,3-6.28,7.14-7.39,12.58-.29,2.67.08,6.25,2.83,8.8,3.2,3,8.3,1.53,14.28-7.39C61.78,31.52,61.35,26.24,57.47,24.27Z"/></g></svg>