<svg xmlns="http://www.w3.org/2000/svg" viewBox="0 0 42.68 50"><defs><style>.cls-1{fill:#8363af;}</style></defs><g id="Layer_3" data-name="Layer 3"><path class="cls-1" d="M40,2.38C37.89.29,35.32.66,29.91,2.91s-4.72,3.7-5.47,7.45S15.54,21.81,12.12,23.7A35.1,35.1,0,0,0,4.51,29h0c-3.2,2.9-4.2,8.08-2.15,12.8C4.87,47.55,11,50.45,16,48.28s7-8.6,4.52-14.34a13,13,0,0,0-2.42-3.68l.12.08a9,9,0,0,1,.78.6l.18.14A10.75,10.75,0,0,1,20.82,33a11.07,11.07,0,0,1,1.12,2,10.78,10.78,0,0,1,.14,8.29,10.55,10.55,0,0,1-1.37,2.46,7.67,7.67,0,0,0,4.65-.44c4.32-1.88,6.06-7.42,3.91-12.38A11,11,0,0,0,27.47,30c4.87-4.51,7.73-11.77,8.44-12.62S37,13.9,39,13.41C41.88,12.69,42.07,4.47,40,2.38Z"/></g></svg>