<svg xmlns="http://www.w3.org/2000/svg" viewBox="0 0 626.76 202.94"><defs><style>.cls-1{fill:#fff;}</style></defs><g id="Layer_2" data-name="Layer 2"><g id="Layer_1-2" data-name="Layer 1"><path class="cls-1" d="M40,135.3a2.54,2.54,0,0,1-.68-1.73V29.5a4.41,4.41,0,0,0-1.44-3.17,4.61,4.61,0,0,0-3.36-1.44H2.3a2.17,2.17,0,0,1-1.53-.77A2.17,2.17,0,0,1,0,22.59V4A1.93,1.93,0,0,1,.67,2.42,2.44,2.44,0,0,1,2.3,1.85H103.69a2.61,2.61,0,0,1,1.92.77,2.38,2.38,0,0,1,.77,1.72V22.39a2.38,2.38,0,0,1-.77,1.73,2.57,2.57,0,0,1-1.92.77H71.82a4.58,4.58,0,0,0-4.61,4.61V133.57a2.58,2.58,0,0,1-.67,1.73,2.3,2.3,0,0,1-1.83.77H41.86A2.25,2.25,0,0,1,40,135.3Z"/><path class="cls-1" d="M134.32,115a68.12,68.12,0,0,1-13.93-23.71l-.38-1a67.67,67.67,0,0,1-3.46-21.51,70.4,70.4,0,0,1,4-23.42,64.93,64.93,0,0,1,12.09-20.93A88.88,88.88,0,0,1,154.09,7.13q10.86-6,27.37-7H182a67.61,67.61,0,0,1,31.5,5.76,68.69,68.69,0,0,1,18.52,12.39q8.94,8.16,13,16.22a67.63,67.63,0,0,1,9,34.18,69.24,69.24,0,0,1-3.26,21,67.87,67.87,0,0,1-9.6,19.1,72,72,0,0,1-10.47,11.81,70.66,70.66,0,0,1-13.92,9.51,70.92,70.92,0,0,1-59.72,1.73A69,69,0,0,1,134.32,115Zm83.62-17a44.18,44.18,0,0,0,7.49-11.33,44.85,44.85,0,0,0,3.84-18A43.86,43.86,0,0,0,222.36,45a42.07,42.07,0,0,0-19-16.42,45.31,45.31,0,0,0-18.24-3.84,43.71,43.71,0,0,0-16.23,3.07,42,42,0,0,0-13.92,9l-3.27,3.45a45.68,45.68,0,0,0-7.77,13.64,44.59,44.59,0,0,0,1.44,33.5,40.28,40.28,0,0,0,11.71,15.08,44.37,44.37,0,0,0,48.2,5.76A47.64,47.64,0,0,0,217.94,98.05Z"/><path class="cls-1" d="M280.06,133.67a5.36,5.36,0,0,1-1.63-3.94V6.46a4.22,4.22,0,0,1,1.15-3,3.77,3.77,0,0,1,2.88-1.25h38.4a64.87,64.87,0,0,1,33.32,8.93,66.15,66.15,0,0,1,24.19,24.29,65.26,65.26,0,0,1,8.93,33.41,64.75,64.75,0,0,1-8.93,33.32,66.33,66.33,0,0,1-24.19,24.19,64.78,64.78,0,0,1-33.32,8.93H284A5.34,5.34,0,0,1,280.06,133.67Zm40.8-23.14A40.92,40.92,0,0,0,341.79,105a41.76,41.76,0,0,0,15.27-15.17,41.53,41.53,0,0,0,0-41.86,42.54,42.54,0,0,0-15.27-15.26A40.43,40.43,0,0,0,320.86,27H305.5a2.29,2.29,0,0,0-2.3,2.31v81.22Z"/><path class="cls-1" d="M400,133.77a3.83,3.83,0,0,1,.77-2.5l37.83-60.68L398.44,6.46a5.75,5.75,0,0,1-.77-2.88c0-1.41.64-2.12,1.92-2.12l19.78.2h1.16c2.17,0,3.58.51,4.22,1.53l27.84,44.93,28-44.93a2.74,2.74,0,0,1,1.82-1.25,19.53,19.53,0,0,1,3.94-.28l19.2-.2c1.28,0,1.92.71,1.92,2.12a5.75,5.75,0,0,1-.77,2.88L427.25,134c-1,1.41-2.88,2.11-5.57,2.11h-19.4A2,2,0,0,1,400,133.77Zm78.15.19L465.07,113a7.84,7.84,0,0,1-1.15-3.46,6.64,6.64,0,0,1,1.35-3.84l4.12-6.62a63.53,63.53,0,0,1,5-7.2c1.21-1.41,2.27-2.12,3.16-2.12a2.25,2.25,0,0,1,1.93,1.35l25,40.13a3.89,3.89,0,0,1,.77,2.5,2,2,0,0,1-2.31,2.3H483.51Q479.48,136.07,478.13,134Z"/><path class="cls-1" d="M551.39,130.69q-15.46-4.8-21.8-10.56a3.94,3.94,0,0,1-1.15-2.88,10.74,10.74,0,0,1,1.54-4.8,83.12,83.12,0,0,1,5.18-8.06,3.93,3.93,0,0,1,3.27-1.92,6.33,6.33,0,0,1,1.73.38q13.62,6.91,22.56,8.74a94,94,0,0,0,18.91,1.82q9.79,0,15.46-3.36t5.66-8.93q0-4.61-4-9.79-2.49-3.27-8-5.47A134.14,134.14,0,0,0,577,81.34q-1-.18-5-1.34-15.56-4.6-24.19-11a30.72,30.72,0,0,1-11.53-16.23,41.19,41.19,0,0,1-2.11-12.29,32.77,32.77,0,0,1,5.19-17.95A40.17,40.17,0,0,1,554.36,9a60.17,60.17,0,0,1,23-6.72c1.15-.12,2.94-.19,5.37-.19a76.9,76.9,0,0,1,28.61,5.57q15,7.48,13.25,12.67a31.81,31.81,0,0,1-4.51,7.2q-3.36,4.32-4.32,5.67a2,2,0,0,1-1.73.76c-1.28,0-3.45-.76-6.53-2.3A45.52,45.52,0,0,0,597.38,28,70.89,70.89,0,0,0,583,26a39.6,39.6,0,0,0-12.49,2.11A22.58,22.58,0,0,0,562.81,34a11.11,11.11,0,0,0-2.69,7q0,5.38,5.38,9.41a67.11,67.11,0,0,0,12.77,7.1q6.81,2.88,15.27,6,9.21,3.45,14.88,6.24a26.66,26.66,0,0,1,9.31,7.39,27.82,27.82,0,0,1,6.43,10.37,35.7,35.7,0,0,1,2.6,12.86A30.68,30.68,0,0,1,621,119a37.24,37.24,0,0,1-15.94,12.19,59.56,59.56,0,0,1-23.43,4.32A101.29,101.29,0,0,1,551.39,130.69Z"/><path class="cls-1" d="M137.82,200.72q-5-1.54-7-3.4a1.3,1.3,0,0,1-.37-.93,3.49,3.49,0,0,1,.5-1.54,26.88,26.88,0,0,1,1.66-2.59,1.27,1.27,0,0,1,1.05-.62,2,2,0,0,1,.56.12,30.12,30.12,0,0,0,7.25,2.81,30.44,30.44,0,0,0,6.08.59,9.72,9.72,0,0,0,5-1.08,3.24,3.24,0,0,0,1.82-2.87,5.24,5.24,0,0,0-1.29-3.15,5.94,5.94,0,0,0-2.56-1.76,43.41,43.41,0,0,0-4.42-1.45c-.2,0-.74-.19-1.6-.43a25,25,0,0,1-7.78-3.55,9.82,9.82,0,0,1-3.7-5.22,13,13,0,0,1-.68-4,10.55,10.55,0,0,1,1.66-5.77,12.86,12.86,0,0,1,4.82-4.35,19.21,19.21,0,0,1,7.41-2.16c.37,0,.94-.06,1.72-.06a24.57,24.57,0,0,1,9.2,1.79q4.81,2.4,4.26,4.07a10.24,10.24,0,0,1-1.45,2.31c-.72.93-1.18,1.54-1.39,1.83a.65.65,0,0,1-.55.24,5.64,5.64,0,0,1-2.1-.74,14.28,14.28,0,0,0-3.27-1.17,23,23,0,0,0-4.63-.62,12.76,12.76,0,0,0-4,.68,7.35,7.35,0,0,0-2.47,1.88,3.61,3.61,0,0,0-.86,2.26,3.73,3.73,0,0,0,1.73,3,21.32,21.32,0,0,0,4.1,2.29q2.19.92,4.91,1.91c2,.74,3.57,1.41,4.79,2a8.46,8.46,0,0,1,3,2.37,9.1,9.1,0,0,1,2.07,3.34,11.59,11.59,0,0,1,.83,4.13,9.89,9.89,0,0,1-1.85,6,12,12,0,0,1-5.12,3.92,19.13,19.13,0,0,1-7.54,1.39A32.93,32.93,0,0,1,137.82,200.72Z"/><path class="cls-1" d="M178.5,201.92a1.09,1.09,0,0,1-.34-.77V160.47a1.08,1.08,0,0,1,.34-.81,1.15,1.15,0,0,1,.77-.3h27.66a1,1,0,0,1,1.11,1.11v5.18a1.08,1.08,0,0,1-.31.77,1,1,0,0,1-.8.34H187a1.14,1.14,0,0,0-.77.31,1,1,0,0,0-.34.8v9.26a1,1,0,0,0,.25.78,2,2,0,0,0,1.17.21h15.43a1,1,0,0,1,.74.28.89.89,0,0,1,.31.71v5.25a.9.9,0,0,1-.31.71,1.07,1.07,0,0,1-.74.27H187.24a1.14,1.14,0,0,0-1.08.47,1.8,1.8,0,0,0-.28.95v6.55a1.63,1.63,0,0,0,.34,1.05,1.72,1.72,0,0,0,1.39.43h19.75a1,1,0,0,1,.77.34,1.12,1.12,0,0,1,.34.83v5.19a1.13,1.13,0,0,1-.3.77,1,1,0,0,1-.81.34H179.27A1.07,1.07,0,0,1,178.5,201.92Z"/><path class="cls-1" d="M223.72,201.58a1.2,1.2,0,0,1,.25-.8l12.1-19.45-12.84-20.62a1.3,1.3,0,0,1-.25-.86c0-.45.21-.68.62-.68H230c.86,0,1.39.16,1.6.49l9,14.39,9-14.39a2.15,2.15,0,0,1,1.66-.49h6.36c.41,0,.62.23.62.68a3,3,0,0,1-.25.86l-12.84,20.62,12.1,19.45a1.25,1.25,0,0,1,.25.8.66.66,0,0,1-.74.74h-6.24a2,2,0,0,1-1.73-.68l-8.15-13.09-8.21,13.09a1.9,1.9,0,0,1-1.73.68h-6.17A.66.66,0,0,1,223.72,201.58Z"/><path class="cls-1" d="M312.34,200.72c-3.32-1-5.65-2.16-7-3.4a1.26,1.26,0,0,1-.37-.93,3.45,3.45,0,0,1,.49-1.54,27.4,27.4,0,0,1,1.67-2.59,1.27,1.27,0,0,1,1.05-.62,2.08,2.08,0,0,1,.56.12,25.51,25.51,0,0,0,13.33,3.4,9.75,9.75,0,0,0,5-1.08,3.25,3.25,0,0,0,1.82-2.87,5.2,5.2,0,0,0-1.3-3.15A5.82,5.82,0,0,0,325,186.3a42.32,42.32,0,0,0-4.41-1.45c-.21,0-.74-.19-1.61-.43a25.18,25.18,0,0,1-7.78-3.55,9.88,9.88,0,0,1-3.7-5.22,13.33,13.33,0,0,1-.68-4,10.55,10.55,0,0,1,1.67-5.77,12.83,12.83,0,0,1,4.81-4.35,19.21,19.21,0,0,1,7.41-2.16c.37,0,.95-.06,1.73-.06a24.61,24.61,0,0,1,9.2,1.79q4.81,2.4,4.26,4.07a10.24,10.24,0,0,1-1.45,2.31c-.72.93-1.19,1.54-1.39,1.83a.67.67,0,0,1-.56.24,5.64,5.64,0,0,1-2.1-.74,14,14,0,0,0-3.27-1.17,22.93,22.93,0,0,0-4.63-.62,12.7,12.7,0,0,0-4,.68,7.35,7.35,0,0,0-2.47,1.88,3.56,3.56,0,0,0-.86,2.26,3.72,3.72,0,0,0,1.72,3A21.71,21.71,0,0,0,321,177.2q2.19.92,4.91,1.91c2,.74,3.57,1.41,4.78,2a8.59,8.59,0,0,1,3,2.37,9,9,0,0,1,2.06,3.34,11.4,11.4,0,0,1,.84,4.13,9.84,9.84,0,0,1-1.86,6,11.94,11.94,0,0,1-5.12,3.92,19,19,0,0,1-7.53,1.39A32.93,32.93,0,0,1,312.34,200.72Z"/><path class="cls-1" d="M352.62,202.2a.83.83,0,0,1-.25-.62V160a.85.85,0,0,1,.86-.86h6.49a.77.77,0,0,1,.61.28.84.84,0,0,1,.25.58v16.12a1.32,1.32,0,0,0,.43,1,1.37,1.37,0,0,0,1,.44h11.73a1.32,1.32,0,0,0,1-.41,1.61,1.61,0,0,0,.46-1V160a.84.84,0,0,1,.25-.58.77.77,0,0,1,.61-.28h6.49a.85.85,0,0,1,.86.86v41.55a.84.84,0,0,1-.86.86H376a.79.79,0,0,1-.61-.27.86.86,0,0,1-.25-.59V187.26a1.66,1.66,0,0,0-.46-1,1.31,1.31,0,0,0-1-.4H362a1.36,1.36,0,0,0-1,.37,1.51,1.51,0,0,0-.46,1v14.38a.86.86,0,0,1-.25.59.79.79,0,0,1-.61.27h-6.49A.84.84,0,0,1,352.62,202.2Z"/><path class="cls-1" d="M403.39,195.68a21.69,21.69,0,0,1-4.47-7.62l-.13-.31a21.69,21.69,0,0,1-1.11-6.91,22.51,22.51,0,0,1,1.3-7.53,20.67,20.67,0,0,1,3.89-6.73,28.52,28.52,0,0,1,6.88-5.59,20.25,20.25,0,0,1,8.8-2.25h.18a21.51,21.51,0,0,1,16.08,5.83,18.29,18.29,0,0,1,4.17,5.22,21.73,21.73,0,0,1,2.9,11,22.24,22.24,0,0,1-1.05,6.76,22,22,0,0,1-3.08,6.14,23.41,23.41,0,0,1-3.37,3.79,21.75,21.75,0,0,1-14.72,5.47,21.25,21.25,0,0,1-16.27-7.26Zm26.89-5.46a14,14,0,0,0,2.4-3.64,14.31,14.31,0,0,0,1.24-5.8,14.14,14.14,0,0,0-2.22-7.63,13.64,13.64,0,0,0-6.12-5.28,14.57,14.57,0,0,0-5.86-1.23,14.08,14.08,0,0,0-5.22,1,13.45,13.45,0,0,0-4.47,2.9l-1,1.11a14.59,14.59,0,0,0-2.5,4.38,14.26,14.26,0,0,0,.46,10.77,12.87,12.87,0,0,0,3.77,4.85,14.27,14.27,0,0,0,15.49,1.85A15.22,15.22,0,0,0,430.28,190.22Z"/><path class="cls-1" d="M457,202.1a1.07,1.07,0,0,1-.34-.77V160.4a1.06,1.06,0,0,1,.34-.8,1.17,1.17,0,0,1,.78-.31h14.38a13.58,13.58,0,0,1,13.64,13.65,13.33,13.33,0,0,1-1.82,6.88,13.54,13.54,0,0,1-11.82,6.76H466a2,2,0,0,0-1.15.28,1.08,1.08,0,0,0-.4.95v13.52a1.08,1.08,0,0,1-.31.77,1,1,0,0,1-.8.34h-5.55A1.07,1.07,0,0,1,457,202.1Zm15.16-23.42a5.58,5.58,0,0,0,4-1.67,5.5,5.5,0,0,0,1.7-4.07,5.43,5.43,0,0,0-1.7-4,5.57,5.57,0,0,0-4-1.66h-6.24c-1,0-1.48.41-1.48,1.23v10.19Z"/><path class="cls-1" d="M110.34,191.37h-1.08a6.12,6.12,0,0,1-6.13-6.13v-1.08a6.13,6.13,0,0,1,6.13-6.14h1.08a6.14,6.14,0,0,1,6.14,6.14v1.08a6.13,6.13,0,0,1-6.14,6.13"/><path class="cls-1" d="M91.92,191.37H90.84a6.12,6.12,0,0,1-6.13-6.13v-1.08A6.13,6.13,0,0,1,90.84,178h1.08a6.13,6.13,0,0,1,6.13,6.14v1.08a6.12,6.12,0,0,1-6.13,6.13"/><path class="cls-1" d="M73.5,191.37H72.42a6.13,6.13,0,0,1-6.14-6.13v-1.08A6.14,6.14,0,0,1,72.42,178H73.5a6.13,6.13,0,0,1,6.13,6.14v1.08a6.12,6.12,0,0,1-6.13,6.13"/><path class="cls-1" d="M549.72,191.37h-1.08a6.12,6.12,0,0,1-6.13-6.13v-1.08a6.13,6.13,0,0,1,6.13-6.14h1.08a6.13,6.13,0,0,1,6.13,6.14v1.08a6.12,6.12,0,0,1-6.13,6.13"/><path class="cls-1" d="M531.3,191.37h-1.08a6.13,6.13,0,0,1-6.14-6.13v-1.08a6.14,6.14,0,0,1,6.14-6.14h1.08a6.13,6.13,0,0,1,6.13,6.14v1.08a6.12,6.12,0,0,1-6.13,6.13"/><path class="cls-1" d="M512.88,191.37H511.8a6.13,6.13,0,0,1-6.14-6.13v-1.08A6.14,6.14,0,0,1,511.8,178h1.08a6.13,6.13,0,0,1,6.13,6.14v1.08a6.12,6.12,0,0,1-6.13,6.13"/></g></g></svg>