<?xml version="1.0" encoding="utf-8"?>
<!-- Generator: Adobe Illustrator 24.1.2, SVG Export Plug-In . SVG Version: 6.00 Build 0)  -->
<svg version="1.1" id="Layer_1" xmlns:serif="http://www.serif.com/"
	 xmlns="http://www.w3.org/2000/svg" xmlns:xlink="http://www.w3.org/1999/xlink" x="0px" y="0px" viewBox="0 0 612 792"
	 style="enable-background:new 0 0 612 792;" xml:space="preserve">
<style type="text/css">
	.st0{fill:#FFFFFF;}
</style>
<g transform="matrix(1,0,0,1,-2645.23,-22.8406)">
	<g transform="matrix(1,0,0,1,1462.08,-5.72875e-13)">
		<g transform="matrix(0.0357367,0,0,0.0357367,1183.15,22.8406)">
			<path class="st0" d="M15390.8,12115.1l1377.7-6061.7c99.5-437.7-233.2-854.4-682-854.4H4639.7l-267.1-1305.9
				c-66.6-325.5-353-559.2-685.2-559.2h-2988C313.1,3333.9,0,3647,0,4033.3v466.3C0,4885.9,313.1,5199,699.4,5199H2736
				l2047.2,10008.6c-489.8,281.7-819.8,809.8-819.8,1415.3c0,901.3,730.7,1632,1632,1632s1632-730.7,1632-1632
				c0-456.8-187.9-869.5-490.3-1165.7h6109.7c-302.4,296.2-490.3,708.9-490.3,1165.7c0,901.3,730.7,1632,1632,1632
				s1632-730.7,1632-1632c0-646.2-375.6-1204.5-920.3-1468.9l160.8-707.5c99.5-437.7-233.2-854.4-682-854.4H6356.5l-190.7-932.6
				h8543C15035.3,12659.5,15318.4,12433.5,15390.8,12115.1z"/>
		</g>
	</g>
</g>
</svg>
