<?xml version="1.0" encoding="utf-8"?>
<!-- Generator: Adobe Illustrator 24.1.2, SVG Export Plug-In . SVG Version: 6.00 Build 0)  -->
<svg version="1.1" id="Layer_1" xmlns:serif="http://www.serif.com/"
	 xmlns="http://www.w3.org/2000/svg" xmlns:xlink="http://www.w3.org/1999/xlink" x="0px" y="0px" viewBox="0 0 612 792"
	 style="enable-background:new 0 0 612 792;" xml:space="preserve">
<style type="text/css">
	.st0{fill:#8363AF;}
</style>
<g transform="matrix(1,0,0,1,-1111.24,-105.745)">
	<g transform="matrix(0.0136842,0,0,0.0136842,1111.24,105.745)">
		<path class="st0" d="M41412.1,40444.1l-7627.2-7627.2c-344.3-344.3-810.9-535.5-1300.5-535.5h-1247
			c2111.4-2700.5,3366.1-6097.1,3366.1-9792.1c0-8790-7122.3-15912.2-15912.2-15912.2S2779,13699.3,2779,22489.3
			s7122.3,15912.2,15912.2,15912.2c3695,0,7091.7-1254.6,9792.1-3366v1247c0,489.6,191.3,956.3,535.5,1300.5l7627.2,7627.2
			c719.1,719.1,1881.9,719.1,2593.4,0l2165-2165C42123.6,42326,42123.6,41163.2,41412.1,40444.1z M18691.3,32281.4
			c-5408.6,0-9792.1-4375.9-9792.1-9792.1c0-5408.6,4375.9-9792.1,9792.1-9792.1c5408.6,0,9792.1,4375.9,9792.1,9792.1
			C28483.4,27897.9,24107.5,32281.4,18691.3,32281.4z"/>
	</g>
</g>
</svg>
