<?xml version="1.0" encoding="utf-8"?>
<!-- Generator: Adobe Illustrator 24.1.2, SVG Export Plug-In . SVG Version: 6.00 Build 0)  -->
<svg version="1.1" id="Layer_1" xmlns="http://www.w3.org/2000/svg" xmlns:xlink="http://www.w3.org/1999/xlink" x="0px" y="0px"
	 viewBox="0 0 150 50" style="enable-background:new 0 0 150 50;" xml:space="preserve">
<style type="text/css">
	.st0{fill:#FFFFFF;}
	.st1{enable-background:new    ;}
	.st2{fill:#FFD300;}
	.st3{fill:#F47A15;}
	.st4{fill:#F27A9D;}
	.st5{fill:#754C9C;}
	.st6{fill:#01AFD6;}
	.st7{fill:#82C776;}
</style>
<g>
	<g>
		<path class="st0" d="M9.6,33.2c-0.1-0.1-0.2-0.3-0.2-0.4v-25c0-0.3-0.1-0.5-0.3-0.8C8.8,6.8,8.6,6.7,8.3,6.7H0.6
			c-0.1,0-0.2-0.1-0.4-0.2C0.1,6.4,0,6.3,0,6.2V1.7c0-0.2,0.1-0.3,0.2-0.4s0.2-0.1,0.4-0.1h24.3c0.2,0,0.3,0.1,0.5,0.2
			c0.1,0.1,0.2,0.3,0.2,0.4v4.3c0,0.2-0.1,0.3-0.2,0.4s-0.3,0.2-0.5,0.2h-7.6c-0.3,0-0.6,0.1-0.8,0.3c-0.2,0.2-0.3,0.5-0.3,0.8v24.9
			c0,0.2-0.1,0.3-0.2,0.4c-0.1,0.1-0.3,0.2-0.4,0.2H10C9.8,33.3,9.7,33.3,9.6,33.2z"/>
		<path class="st0" d="M32.1,28.3c-1.5-1.7-2.6-3.6-3.3-5.7l-0.1-0.2c-0.6-1.7-0.8-3.4-0.8-5.1c0-1.9,0.3-3.8,1-5.6
			c0.6-1.8,1.6-3.5,2.9-5c1.7-1.8,3.4-3.2,5.1-4.2s3.9-1.5,6.5-1.7h0.1c2.6-0.2,5.1,0.3,7.5,1.4c1.5,0.7,3,1.7,4.4,3
			C57,6.4,58,7.7,58.6,9c1.4,2.5,2.2,5.2,2.2,8.2c0,1.7-0.3,3.4-0.8,5s-1.3,3.2-2.3,4.6c-0.8,1.1-1.6,2-2.5,2.8s-2,1.6-3.3,2.3
			c-2.4,1.2-4.9,1.8-7.6,1.8c-2.3,0-4.5-0.5-6.7-1.4C35.5,31.3,33.7,30,32.1,28.3z M52.2,24.2c0.8-0.9,1.4-1.9,1.8-2.7
			c0.6-1.4,0.9-2.8,0.9-4.3c0-2-0.6-3.9-1.7-5.7c-1.1-1.8-2.6-3.1-4.5-3.9c-1.4-0.6-2.9-0.9-4.4-0.9c-1.3,0-2.6,0.2-3.9,0.7
			c-1.2,0.5-2.4,1.2-3.3,2.2l-0.8,0.8c-0.8,1-1.4,2.1-1.9,3.3c-0.4,1.2-0.6,2.4-0.6,3.6c0,1.5,0.3,3,1,4.4c0.6,1.4,1.6,2.6,2.8,3.6
			c2,1.7,4.3,2.5,6.8,2.5c1.7,0,3.3-0.4,4.7-1.1C50.3,26,51.3,25.2,52.2,24.2z"/>
		<path class="st0" d="M67,32.8c-0.3-0.3-0.4-0.6-0.4-0.9V2.3c0-0.3,0.1-0.5,0.3-0.7c0.2-0.2,0.4-0.3,0.7-0.3h9.2
			c2.9,0,5.5,0.7,8,2.1c2.4,1.4,4.4,3.4,5.8,5.8c1.4,2.5,2.1,5.1,2.1,8s-0.7,5.5-2.1,8c-1.4,2.4-3.4,4.4-5.8,5.8
			c-2.4,1.4-5.1,2.1-8,2.1H68C67.6,33.2,67.3,33,67,32.8z M76.8,27.2c1.8,0,3.5-0.4,5-1.3s2.8-2.1,3.7-3.6c0.9-1.5,1.4-3.2,1.4-5
			s-0.5-3.5-1.4-5s-2.1-2.7-3.7-3.7c-1.5-0.9-3.2-1.4-5-1.4h-3.7c-0.2,0-0.3,0.1-0.4,0.2s-0.2,0.2-0.2,0.4v19.4H76.8z"/>
	</g>
	<g>
		<path class="st0" d="M95.7,32.8c0-0.2,0.1-0.4,0.2-0.6l9.1-14.5L95.4,2.3c-0.1-0.2-0.2-0.4-0.2-0.7s0.2-0.5,0.5-0.5h4.7h0.3
			c0.5,0,0.9,0.1,1,0.4l6.7,10.8L115,1.5c0.1-0.2,0.2-0.3,0.4-0.3c0.2,0,0.5-0.1,0.9-0.1h4.6c0.3,0,0.5,0.2,0.5,0.5
			c0,0.2-0.1,0.5-0.2,0.7l-19,30.5c-0.2,0.3-0.7,0.5-1.3,0.5h-4.6C95.9,33.3,95.7,33.2,95.7,32.8z M114.4,32.8l-3.1-5
			c-0.2-0.3-0.3-0.6-0.3-0.8c0-0.3,0.1-0.6,0.3-0.9c0.2-0.2,0.5-0.8,1-1.6c0.5-0.8,0.9-1.4,1.2-1.7c0.3-0.3,0.5-0.5,0.8-0.5
			c0.2,0,0.3,0.1,0.5,0.3l6,9.6c0.1,0.2,0.2,0.4,0.2,0.6c0,0.4-0.2,0.6-0.6,0.6h-4.6C115.1,33.3,114.6,33.2,114.4,32.8z"/>
	</g>
	<g>
		<path class="st0" d="M132,32.1c-2.5-0.8-4.2-1.6-5.2-2.5c-0.2-0.2-0.3-0.4-0.3-0.7c0-0.3,0.1-0.7,0.4-1.1c0.2-0.5,0.7-1.1,1.2-1.9
			c0.2-0.3,0.5-0.5,0.8-0.5c0.1,0,0.2,0,0.4,0.1c2.2,1.1,4,1.8,5.4,2.1c1.4,0.3,2.9,0.4,4.5,0.4s2.8-0.3,3.7-0.8s1.4-1.2,1.4-2.1
			c0-0.7-0.3-1.5-1-2.3c-0.4-0.5-1-1-1.9-1.3c-0.9-0.4-2-0.7-3.3-1.1c-0.2,0-0.6-0.1-1.2-0.3c-2.5-0.7-4.4-1.6-5.8-2.6
			c-1.4-1-2.3-2.3-2.8-3.9c-0.3-1.1-0.5-2.1-0.5-2.9c0-1.6,0.4-3,1.2-4.3s2-2.4,3.6-3.2c1.6-0.9,3.4-1.4,5.5-1.6c0.3,0,0.7,0,1.3,0
			c2.3,0,4.6,0.4,6.8,1.3c2.4,1.2,3.4,2.2,3.2,3c-0.2,0.5-0.5,1-1.1,1.7c-0.5,0.7-0.9,1.1-1,1.4c-0.1,0.1-0.2,0.2-0.4,0.2
			c-0.3,0-0.8-0.2-1.6-0.6c-1-0.5-1.8-0.8-2.4-0.9c-1.4-0.3-2.6-0.5-3.4-0.5c-1,0-2,0.2-3,0.5c-0.8,0.4-1.4,0.9-1.8,1.4
			c-0.4,0.5-0.6,1.1-0.6,1.7c0,0.9,0.4,1.6,1.3,2.3c0.9,0.7,2,1.2,3.1,1.7s2.3,0.9,3.7,1.4c1.5,0.6,2.7,1,3.6,1.5
			c0.9,0.4,1.6,1,2.2,1.8c0.6,0.6,1.1,1.4,1.5,2.5s0.6,2.1,0.6,3.1c0,1.7-0.5,3.2-1.4,4.5s-2.2,2.2-3.8,2.9s-3.5,1-5.6,1
			C136.8,33.2,134.4,32.8,132,32.1z"/>
	</g>
	<g>
		<g class="st1">
			<path class="st0" d="M34.7,48.8c-0.8-0.2-1.4-0.5-1.7-0.8C33,47.9,33,47.9,33,47.8c0-0.1,0-0.2,0.1-0.4c0.1-0.1,0.2-0.4,0.4-0.6
				c0.1-0.1,0.2-0.1,0.3-0.1c0,0,0.1,0,0.1,0c0.7,0.4,1.3,0.6,1.7,0.7s0.9,0.1,1.5,0.1c0.5,0,0.9-0.1,1.2-0.3
				c0.3-0.2,0.4-0.4,0.4-0.7c0-0.2-0.1-0.5-0.3-0.8c-0.1-0.2-0.3-0.3-0.6-0.4s-0.6-0.2-1.1-0.3c0,0-0.2,0-0.4-0.1
				c-0.8-0.2-1.4-0.5-1.9-0.8c-0.4-0.3-0.7-0.7-0.9-1.2c-0.1-0.3-0.2-0.7-0.2-0.9c0-0.5,0.1-1,0.4-1.4c0.3-0.4,0.6-0.8,1.2-1
				c0.5-0.3,1.1-0.4,1.8-0.5c0.1,0,0.2,0,0.4,0c0.7,0,1.5,0.1,2.2,0.4c0.8,0.4,1.1,0.7,1,1c-0.1,0.1-0.2,0.3-0.3,0.6
				s-0.3,0.4-0.3,0.4c0,0-0.1,0.1-0.1,0.1c-0.1,0-0.3-0.1-0.5-0.2c-0.3-0.1-0.6-0.2-0.8-0.3c-0.5-0.1-0.8-0.1-1.1-0.1
				c-0.3,0-0.6,0.1-1,0.2c-0.3,0.1-0.5,0.3-0.6,0.5c-0.1,0.2-0.2,0.4-0.2,0.5c0,0.3,0.1,0.5,0.4,0.7c0.3,0.2,0.6,0.4,1,0.5
				c0.3,0.1,0.7,0.3,1.2,0.5c0.5,0.2,0.9,0.3,1.1,0.5s0.5,0.3,0.7,0.6c0.2,0.2,0.4,0.5,0.5,0.8c0.1,0.3,0.2,0.7,0.2,1
				c0,0.6-0.1,1-0.4,1.4c-0.3,0.4-0.7,0.7-1.2,0.9c-0.5,0.2-1.1,0.3-1.8,0.3C36.3,49.2,35.5,49.1,34.7,48.8z"/>
			<path class="st0" d="M43,49.1c-0.1-0.1-0.1-0.1-0.1-0.2v-9.7c0-0.1,0-0.1,0.1-0.2c0.1,0,0.1-0.1,0.2-0.1h6.6c0.1,0,0.1,0,0.2,0.1
				c0,0,0.1,0.1,0.1,0.2v1.2c0,0.1,0,0.1-0.1,0.2c0,0.1-0.1,0.1-0.2,0.1H45c-0.1,0-0.1,0-0.2,0.1c-0.1,0-0.1,0.1-0.1,0.2v2.2v0
				c0,0.1,0,0.2,0.1,0.2c0,0,0.1,0.1,0.3,0.1h3.7c0.1,0,0.1,0,0.2,0.1c0,0,0.1,0.1,0.1,0.2v1.3c0,0.1,0,0.1-0.1,0.2
				c0,0-0.1,0.1-0.2,0.1h-3.7c-0.1,0-0.2,0-0.3,0.1c0,0.1-0.1,0.2-0.1,0.2V47c0,0.1,0,0.2,0.1,0.3c0.1,0.1,0.2,0.1,0.3,0.1h4.7
				c0.1,0,0.1,0,0.2,0.1c0.1,0.1,0.1,0.1,0.1,0.2v1.2c0,0.1,0,0.1-0.1,0.2c0,0.1-0.1,0.1-0.2,0.1h-6.7C43.1,49.2,43.1,49.2,43,49.1z
				"/>
			<path class="st0" d="M52.3,49c0-0.1,0-0.1,0.1-0.2l2.9-4.7l-3.1-4.9c0,0-0.1-0.1-0.1-0.2c0-0.1,0-0.2,0.1-0.2h1.5
				c0.2,0,0.3,0,0.4,0.1l2.2,3.4l2.1-3.4c0.1-0.1,0.2-0.1,0.4-0.1h1.5c0.1,0,0.1,0.1,0.1,0.2c0,0,0,0.1-0.1,0.2l-3.1,4.9l2.9,4.7
				c0,0,0.1,0.1,0.1,0.2c0,0.1-0.1,0.2-0.2,0.2h-1.5c-0.2,0-0.3-0.1-0.4-0.2l-2-3.1l-2,3.1c-0.1,0.1-0.2,0.2-0.4,0.2h-1.5
				C52.4,49.2,52.3,49.1,52.3,49z"/>
		</g>
		<g class="st1">
			<path class="st0" d="M76.5,48.8c-0.8-0.2-1.4-0.5-1.7-0.8c-0.1-0.1-0.1-0.1-0.1-0.2c0-0.1,0-0.2,0.1-0.4c0.1-0.1,0.2-0.4,0.4-0.6
				c0.1-0.1,0.2-0.1,0.3-0.1c0,0,0.1,0,0.1,0c0.7,0.4,1.3,0.6,1.7,0.7s0.9,0.1,1.5,0.1c0.5,0,0.9-0.1,1.2-0.3
				c0.3-0.2,0.4-0.4,0.4-0.7c0-0.2-0.1-0.5-0.3-0.8c-0.1-0.2-0.3-0.3-0.6-0.4c-0.3-0.1-0.6-0.2-1.1-0.3c0,0-0.2,0-0.4-0.1
				c-0.8-0.2-1.4-0.5-1.9-0.8c-0.4-0.3-0.7-0.7-0.9-1.2c-0.1-0.3-0.2-0.7-0.2-0.9c0-0.5,0.1-1,0.4-1.4c0.3-0.4,0.6-0.8,1.2-1
				c0.5-0.3,1.1-0.4,1.8-0.5c0.1,0,0.2,0,0.4,0c0.7,0,1.5,0.1,2.2,0.4c0.8,0.4,1.1,0.7,1,1c-0.1,0.1-0.2,0.3-0.3,0.6
				c-0.2,0.2-0.3,0.4-0.3,0.4c0,0-0.1,0.1-0.1,0.1c-0.1,0-0.3-0.1-0.5-0.2c-0.3-0.1-0.6-0.2-0.8-0.3c-0.5-0.1-0.8-0.1-1.1-0.1
				c-0.3,0-0.6,0.1-1,0.2c-0.3,0.1-0.5,0.3-0.6,0.5c-0.1,0.2-0.2,0.4-0.2,0.5c0,0.3,0.1,0.5,0.4,0.7c0.3,0.2,0.6,0.4,1,0.5
				c0.3,0.1,0.7,0.3,1.2,0.5c0.5,0.2,0.9,0.3,1.1,0.5c0.3,0.1,0.5,0.3,0.7,0.6c0.2,0.2,0.4,0.5,0.5,0.8c0.1,0.3,0.2,0.7,0.2,1
				c0,0.6-0.1,1-0.4,1.4c-0.3,0.4-0.7,0.7-1.2,0.9c-0.5,0.2-1.1,0.3-1.8,0.3C78.1,49.2,77.3,49.1,76.5,48.8z"/>
			<path class="st0" d="M84.7,49.2c0,0-0.1-0.1-0.1-0.1v-9.9c0-0.1,0-0.1,0.1-0.1c0,0,0.1-0.1,0.1-0.1h1.6c0.1,0,0.1,0,0.1,0.1
				c0,0,0.1,0.1,0.1,0.1v3.9c0,0.1,0,0.2,0.1,0.2c0.1,0.1,0.1,0.1,0.2,0.1h2.8c0.1,0,0.2,0,0.2-0.1c0.1-0.1,0.1-0.1,0.1-0.2v-3.9
				c0,0,0-0.1,0.1-0.1c0,0,0.1-0.1,0.1-0.1h1.6c0.1,0,0.1,0,0.1,0.1c0,0,0.1,0.1,0.1,0.1V49c0,0.1,0,0.1-0.1,0.1
				c0,0-0.1,0.1-0.1,0.1h-1.6c-0.1,0-0.1,0-0.1-0.1c0,0-0.1-0.1-0.1-0.1v-3.4c0-0.1,0-0.2-0.1-0.2c-0.1-0.1-0.1-0.1-0.2-0.1H87
				c-0.1,0-0.2,0-0.2,0.1c-0.1,0.1-0.1,0.1-0.1,0.2V49c0,0,0,0.1-0.1,0.1s-0.1,0.1-0.1,0.1h-1.6C84.8,49.2,84.7,49.2,84.7,49.2z"/>
		</g>
		<g class="st1">
			<path class="st0" d="M97.3,47.6c-0.5-0.5-0.8-1.2-1.1-1.8l0-0.1c-0.2-0.5-0.3-1.1-0.3-1.7c0-0.6,0.1-1.2,0.3-1.8s0.5-1.1,0.9-1.6
				c0.5-0.6,1.1-1,1.6-1.3s1.3-0.5,2.1-0.5h0c0.8,0,1.6,0.1,2.4,0.4c0.5,0.2,1,0.5,1.4,1c0.5,0.4,0.8,0.8,1,1.2
				c0.5,0.8,0.7,1.7,0.7,2.6c0,0.6-0.1,1.1-0.3,1.6c-0.2,0.5-0.4,1-0.7,1.5c-0.2,0.3-0.5,0.6-0.8,0.9c-0.3,0.3-0.6,0.5-1.1,0.7
				c-0.8,0.4-1.6,0.6-2.5,0.6c-0.7,0-1.5-0.1-2.1-0.4C98.4,48.6,97.8,48.2,97.3,47.6z M103.7,46.3c0.3-0.3,0.5-0.6,0.6-0.9
				c0.2-0.5,0.3-0.9,0.3-1.4c0-0.7-0.2-1.3-0.5-1.8s-0.8-1-1.5-1.3c-0.5-0.2-0.9-0.3-1.4-0.3c-0.4,0-0.8,0.1-1.2,0.2
				c-0.4,0.2-0.8,0.4-1.1,0.7l-0.3,0.3c-0.3,0.3-0.5,0.7-0.6,1c-0.1,0.4-0.2,0.8-0.2,1.2c0,0.5,0.1,1,0.3,1.4s0.5,0.8,0.9,1.2
				c0.6,0.5,1.4,0.8,2.2,0.8c0.5,0,1-0.1,1.5-0.4C103.1,46.9,103.5,46.6,103.7,46.3z"/>
		</g>
		<g class="st1">
			<path class="st0" d="M110.1,49.1c-0.1-0.1-0.1-0.1-0.1-0.2v-9.8c0-0.1,0-0.1,0.1-0.2c0.1,0,0.1-0.1,0.2-0.1h3.4
				c0.6,0,1.1,0.1,1.6,0.4c0.5,0.3,0.9,0.7,1.2,1.2s0.4,1,0.4,1.6c0,0.6-0.1,1.2-0.4,1.6c-0.3,0.5-0.7,0.9-1.2,1.2
				c-0.5,0.3-1,0.4-1.6,0.4h-1.5c-0.1,0-0.2,0-0.3,0.1s-0.1,0.1-0.1,0.2V49c0,0.1,0,0.1-0.1,0.2c0,0.1-0.1,0.1-0.2,0.1h-1.3
				C110.2,49.2,110.2,49.2,110.1,49.1z M113.8,43.5c0.4,0,0.7-0.1,1-0.4s0.4-0.6,0.4-1c0-0.4-0.1-0.7-0.4-1s-0.6-0.4-1-0.4h-1.5
				c-0.2,0-0.4,0.1-0.4,0.3v2.4H113.8z"/>
		</g>
	</g>
	<path class="st2" d="M21.5,48.1h-0.6c-1.5,0-2.9-1.4-2.9-2.9v-0.6c0-1.5,1.4-2.9,2.9-2.9h0.6c1.5,0,2.9,1.4,2.9,2.9v0.6
		C24.4,46.8,23,48.1,21.5,48.1"/>
	<path class="st3" d="M13,48.1h-0.6c-1.5,0-2.9-1.4-2.9-2.9v-0.6c0-1.5,1.4-2.9,2.9-2.9H13c1.5,0,2.9,1.4,2.9,2.9v0.6
		C15.9,46.8,14.5,48.1,13,48.1"/>
	<path class="st4" d="M4.5,48.1H3.9c-1.5,0-2.9-1.4-2.9-2.9v-0.6c0-1.5,1.4-2.9,2.9-2.9h0.6c1.5,0,2.9,1.4,2.9,2.9v0.6
		C7.4,46.8,6,48.1,4.5,48.1"/>
	<path class="st5" d="M145,48.1h-0.6c-1.5,0-2.9-1.4-2.9-2.9v-0.6c0-1.5,1.4-2.9,2.9-2.9h0.6c1.5,0,2.9,1.4,2.9,2.9v0.6
		C147.7,46.8,146.6,48.1,145,48.1"/>
	<path class="st6" d="M136.5,48.1h-0.6c-1.5,0-2.9-1.4-2.9-2.9v-0.6c0-1.5,1.4-2.9,2.9-2.9h0.6c1.5,0,2.9,1.4,2.9,2.9v0.6
		C139.2,46.8,138.1,48.1,136.5,48.1"/>
	<path class="st7" d="M127.8,48.1h-0.6c-1.5,0-2.9-1.4-2.9-2.9v-0.6c0-1.5,1.4-2.9,2.9-2.9h0.6c1.5,0,2.9,1.4,2.9,2.9v0.6
		C130.7,46.8,129.5,48.1,127.8,48.1"/>
</g>
</svg>
