<?xml version="1.0" encoding="utf-8"?>
<!-- Generator: Adobe Illustrator 24.1.2, SVG Export Plug-In . SVG Version: 6.00 Build 0)  -->
<svg version="1.1" id="Layer_1" xmlns="http://www.w3.org/2000/svg" xmlns:xlink="http://www.w3.org/1999/xlink" x="0px" y="0px"
	 viewBox="0 0 150 50" style="enable-background:new 0 0 150 50;" xml:space="preserve">
<style type="text/css">
	.st0{clip-path:url(#SVGID_2_);fill:#FFD300;}
	.st1{clip-path:url(#SVGID_2_);fill:#F47A15;}
	.st2{clip-path:url(#SVGID_2_);fill:#F27A9D;}
	.st3{clip-path:url(#SVGID_2_);fill:#754C9C;}
	.st4{clip-path:url(#SVGID_2_);fill:#01AFD6;}
	.st5{clip-path:url(#SVGID_2_);fill:#82C776;}
	.st6{font-family:'LEIXO-DEMO';}
	.st7{font-size:14.7743px;}
	.st8{letter-spacing:1;}
	.st9{fill:#FFD300;}
	.st10{fill:#F47A15;}
	.st11{fill:#F27A9D;}
	.st12{fill:#754C9C;}
	.st13{fill:#01AFD6;}
	.st14{fill:#82C776;}
</style>
<g>
	<g>
		<path d="M9.6,33.2c-0.1-0.1-0.2-0.3-0.2-0.4V7.8c0-0.3-0.1-0.5-0.3-0.8C8.8,6.8,8.6,6.7,8.3,6.7H0.6c-0.1,0-0.2-0.1-0.4-0.2
			C0.1,6.4,0,6.3,0,6.2V1.7c0-0.2,0.1-0.3,0.2-0.4c0.1-0.1,0.2-0.1,0.4-0.1h24.3c0.2,0,0.3,0.1,0.5,0.2c0.1,0.1,0.2,0.3,0.2,0.4v4.3
			c0,0.2-0.1,0.3-0.2,0.4c-0.1,0.1-0.3,0.2-0.5,0.2h-7.6c-0.3,0-0.6,0.1-0.8,0.3c-0.2,0.2-0.3,0.5-0.3,0.8v24.9
			c0,0.2-0.1,0.3-0.2,0.4c-0.1,0.1-0.3,0.2-0.4,0.2H10C9.8,33.3,9.7,33.3,9.6,33.2z"/>
		<path d="M32.1,28.3c-1.5-1.7-2.6-3.6-3.3-5.7l-0.1-0.2c-0.6-1.7-0.8-3.4-0.8-5.1c0-1.9,0.3-3.8,1-5.6c0.6-1.8,1.6-3.5,2.9-5
			c1.7-1.8,3.4-3.2,5.1-4.2s3.9-1.5,6.5-1.7h0.1c2.6-0.2,5.1,0.3,7.5,1.4c1.5,0.7,3,1.7,4.4,3C57,6.4,58,7.7,58.6,9
			c1.4,2.5,2.2,5.2,2.2,8.2c0,1.7-0.3,3.4-0.8,5c-0.5,1.6-1.3,3.2-2.3,4.6c-0.8,1.1-1.6,2-2.5,2.8c-0.9,0.8-2,1.6-3.3,2.3
			c-2.4,1.2-4.9,1.8-7.6,1.8c-2.3,0-4.5-0.5-6.7-1.4C35.5,31.3,33.7,30,32.1,28.3z M52.2,24.2c0.8-0.9,1.4-1.9,1.8-2.7
			c0.6-1.4,0.9-2.8,0.9-4.3c0-2-0.6-3.9-1.7-5.7c-1.1-1.8-2.6-3.1-4.5-3.9c-1.4-0.6-2.9-0.9-4.4-0.9c-1.3,0-2.6,0.2-3.9,0.7
			c-1.2,0.5-2.4,1.2-3.3,2.2l-0.8,0.8c-0.8,1-1.4,2.1-1.9,3.3c-0.4,1.2-0.6,2.4-0.6,3.6c0,1.5,0.3,3,1,4.4c0.6,1.4,1.6,2.6,2.8,3.6
			c2,1.7,4.3,2.5,6.8,2.5c1.7,0,3.3-0.4,4.7-1.1C50.3,26,51.3,25.2,52.2,24.2z"/>
		<path d="M67,32.8c-0.3-0.3-0.4-0.6-0.4-0.9V2.3c0-0.3,0.1-0.5,0.3-0.7c0.2-0.2,0.4-0.3,0.7-0.3h9.2c2.9,0,5.5,0.7,8,2.1
			c2.4,1.4,4.4,3.4,5.8,5.8c1.4,2.5,2.1,5.1,2.1,8c0,2.9-0.7,5.5-2.1,8c-1.4,2.4-3.4,4.4-5.8,5.8c-2.4,1.4-5.1,2.1-8,2.1H68
			C67.6,33.2,67.3,33,67,32.8z M76.8,27.2c1.8,0,3.5-0.4,5-1.3c1.5-0.9,2.8-2.1,3.7-3.6c0.9-1.5,1.4-3.2,1.4-5c0-1.8-0.5-3.5-1.4-5
			c-0.9-1.5-2.1-2.7-3.7-3.7c-1.5-0.9-3.2-1.4-5-1.4h-3.7c-0.2,0-0.3,0.1-0.4,0.2c-0.1,0.1-0.2,0.2-0.2,0.4v19.4H76.8z"/>
	</g>
	<g>
		<path d="M95.7,32.8c0-0.2,0.1-0.4,0.2-0.6l9.1-14.5L95.4,2.3c-0.1-0.2-0.2-0.4-0.2-0.7c0-0.3,0.2-0.5,0.5-0.5l4.7,0h0.3
			c0.5,0,0.9,0.1,1,0.4l6.7,10.8L115,1.5c0.1-0.2,0.2-0.3,0.4-0.3c0.2,0,0.5-0.1,0.9-0.1l4.6,0c0.3,0,0.5,0.2,0.5,0.5
			c0,0.2-0.1,0.5-0.2,0.7l-19,30.5c-0.2,0.3-0.7,0.5-1.3,0.5h-4.6C95.9,33.3,95.7,33.2,95.7,32.8z M114.4,32.8l-3.1-5
			c-0.2-0.3-0.3-0.6-0.3-0.8c0-0.3,0.1-0.6,0.3-0.9c0.2-0.2,0.5-0.8,1-1.6c0.5-0.8,0.9-1.4,1.2-1.7c0.3-0.3,0.5-0.5,0.8-0.5
			c0.2,0,0.3,0.1,0.5,0.3l6,9.6c0.1,0.2,0.2,0.4,0.2,0.6c0,0.4-0.2,0.6-0.6,0.6h-4.6C115.1,33.3,114.6,33.2,114.4,32.8z"/>
	</g>
	<g>
		<path d="M132,32.1c-2.5-0.8-4.2-1.6-5.2-2.5c-0.2-0.2-0.3-0.4-0.3-0.7c0-0.3,0.1-0.7,0.4-1.1c0.2-0.5,0.7-1.1,1.2-1.9
			c0.2-0.3,0.5-0.5,0.8-0.5c0.1,0,0.2,0,0.4,0.1c2.2,1.1,4,1.8,5.4,2.1c1.4,0.3,2.9,0.4,4.5,0.4c1.6,0,2.8-0.3,3.7-0.8
			c0.9-0.5,1.4-1.2,1.4-2.1c0-0.7-0.3-1.5-1-2.3c-0.4-0.5-1-1-1.9-1.3c-0.9-0.4-2-0.7-3.3-1.1c-0.2,0-0.6-0.1-1.2-0.3
			c-2.5-0.7-4.4-1.6-5.8-2.6c-1.4-1-2.3-2.3-2.8-3.9c-0.3-1.1-0.5-2.1-0.5-2.9c0-1.6,0.4-3,1.2-4.3c0.8-1.3,2-2.4,3.6-3.2
			c1.6-0.9,3.4-1.4,5.5-1.6c0.3,0,0.7,0,1.3,0c2.3,0,4.6,0.4,6.8,1.3c2.4,1.2,3.4,2.2,3.2,3c-0.2,0.5-0.5,1-1.1,1.7
			c-0.5,0.7-0.9,1.1-1,1.4c-0.1,0.1-0.2,0.2-0.4,0.2c-0.3,0-0.8-0.2-1.6-0.6c-1-0.5-1.8-0.8-2.4-0.9c-1.4-0.3-2.6-0.5-3.4-0.5
			c-1,0-2,0.2-3,0.5c-0.8,0.4-1.4,0.9-1.8,1.4c-0.4,0.5-0.6,1.1-0.6,1.7c0,0.9,0.4,1.6,1.3,2.3c0.9,0.7,2,1.2,3.1,1.7
			c1.1,0.5,2.3,0.9,3.7,1.4c1.5,0.6,2.7,1,3.6,1.5c0.9,0.4,1.6,1,2.2,1.8c0.6,0.6,1.1,1.4,1.5,2.5c0.4,1.1,0.6,2.1,0.6,3.1
			c0,1.7-0.5,3.2-1.4,4.5c-0.9,1.3-2.2,2.2-3.8,2.9c-1.6,0.7-3.5,1-5.6,1C136.8,33.2,134.4,32.8,132,32.1z"/>
	</g>
	<text transform="matrix(1 0 0 1 30.1255 49.2249)"><tspan x="0" y="0" class="st6 st7 st8">sex</tspan><tspan x="34" y="0" class="st6 st7 st8"> </tspan><tspan x="41.8" y="0" class="st6 st7 st8">sh</tspan><tspan x="64.2" y="0" class="st6 st7 st8">o</tspan><tspan x="78" y="0" class="st6 st7">p</tspan></text>
	<path class="st9" d="M26.4,46.6h-0.3c-0.8,0-1.5-0.7-1.5-1.5v-0.3c0-0.8,0.7-1.5,1.5-1.5h0.3c0.8,0,1.5,0.7,1.5,1.5v0.3
		C27.9,45.9,27.2,46.6,26.4,46.6"/>
	<path class="st10" d="M22,46.6h-0.3c-0.8,0-1.5-0.7-1.5-1.5v-0.3c0-0.8,0.7-1.5,1.5-1.5H22c0.8,0,1.5,0.7,1.5,1.5v0.3
		C23.5,45.9,22.8,46.6,22,46.6"/>
	<path class="st11" d="M17.6,46.6h-0.3c-0.8,0-1.5-0.7-1.5-1.5v-0.3c0-0.8,0.7-1.5,1.5-1.5h0.3c0.8,0,1.5,0.7,1.5,1.5v0.3
		C19.1,45.9,18.4,46.6,17.6,46.6"/>
	<path class="st12" d="M131.6,46.6h-0.3c-0.8,0-1.5-0.7-1.5-1.5v-0.3c0-0.8,0.7-1.5,1.5-1.5h0.3c0.8,0,1.5,0.7,1.5,1.5v0.3
		C133,45.9,132.4,46.6,131.6,46.6"/>
	<path class="st13" d="M127.2,46.6h-0.3c-0.8,0-1.5-0.7-1.5-1.5v-0.3c0-0.8,0.7-1.5,1.5-1.5h0.3c0.8,0,1.5,0.7,1.5,1.5v0.3
		C128.6,45.9,128,46.6,127.2,46.6"/>
	<path class="st14" d="M122.7,46.6h-0.3c-0.8,0-1.5-0.7-1.5-1.5v-0.3c0-0.8,0.7-1.5,1.5-1.5h0.3c0.8,0,1.5,0.7,1.5,1.5v0.3
		C124.2,45.9,123.6,46.6,122.7,46.6"/>
</g>
</svg>
